 http://s19.postimg.org/ommer75g3/image.jpg
 
http://s19.postimg.org/sx12msaj7/image.jpg
 
http://s19.postimg.org/vse5tnej7/image.jpg

Format                                   : MPEG-4
Format profile                           : Base Media
Codec ID                                 : isom
File size                                : 154 MiB
Duration                                 : 21mn 25s
Overall bit rate                         : 1 003 Kbps
Writing application                      : Lavf54.59.106

Video
ID                                       : 1
Format                                   : AVC
Format/Info                              : Advanced Video Codec
Format profile                           : High@L3.0
Format settings, CABAC                   : Yes
Format settings, ReFrames                : 5 frames
Codec ID                                 : avc1
Codec ID/Info                            : Advanced Video Coding
Duration                                 : 21mn 25s
Bit rate                                 : 931 Kbps
Width                                    : 640 pixels
Height                                   : 480 pixels
Display aspect ratio                     : 4:3
Frame rate mode                          : Variable
Frame rate                               : 29.970 fps
Minimum frame rate                       : 2.469 fps
Maximum frame rate                       : 500.000 fps
Color space                              : YUV
Chroma subsampling                       : 4:2:0
Bit depth                                : 8 bits
Scan type                                : Progressive
Bits/(Pixel*Frame)                       : 0.101
Stream size                              : 143 MiB (93%)

Audio
ID                                       : 2
Format                                   : AAC
Format/Info                              : Advanced Audio Codec
Format profile                           : HE-AAC / LC
Codec ID                                 : 40
Duration                                 : 21mn 25s
Bit rate mode                            : Constant
Bit rate                                 : 64.0 Kbps
Channel(s)                               : 2 channels
Channel positions                        : Front: L R
Sampling rate                            : 44.1 KHz / 22.05 KHz
Compression mode                         : Lossy
Stream size                              : 9.81 MiB (6%)


Storyline

This show tells the tale of Hercules adventures as a teenager when he learned his warrior skills at a training academy. Together with his friends Iolaus and Jason, he fights his brother Ares, other gods such as Bacchus, and various bandits and mythical beasts. 
